<svg height="512" viewBox="0 0 64 64" width="512" xmlns="http://www.w3.org/2000/svg"><g id="documents"><path d="m54 3v52h-44v-48a4 4 0 0 1 4-4z" fill="#ffdaaa"/><path d="m52 3h2v52h-2z" fill="#ffc477"/><rect fill="#ffeb99" height="38" rx="2" width="28" x="33" y="23"/><path d="m61 9h-7v-6h1a6 6 0 0 1 6 6z" fill="#c0ab91"/><path d="m53 50h4v7h-4z" fill="#ffde55"/><path d="m53 43h4v3h-4z" fill="#ffde55"/><path d="m57 31v4a4 4 0 0 1 -4 4h-12a4 4 0 0 1 -4-4v-4a4 4 0 0 1 4-4h12a4 4 0 0 1 4 4zm-4 4v-4a1 1 0 0 0 -1-1h-2a1 1 0 0 0 -1 1v4a1 1 0 0 0 1 1h2a1 1 0 0 0 1-1z" fill="#57a4ff"/><rect fill="#57a4ff" height="6" rx="1" width="4" x="49" y="30"/><g fill="#ffde55"><rect height="5" rx="1.5" width="5" x="45" y="52"/><rect height="5" rx="1.5" width="5" x="45" y="43"/><rect height="5" rx="1.5" width="5" x="37" y="52"/><rect height="5" rx="1.5" width="5" x="37" y="43"/></g><path d="m35 61h-26a6.009 6.009 0 0 1 -6-6h30v4a2.006 2.006 0 0 0 2 2z" fill="#c0ab91"/><path d="m61 25v34a2.006 2.006 0 0 1 -2 2h-2a2.006 2.006 0 0 0 2-2v-34a2.006 2.006 0 0 0 -2-2h2a2.006 2.006 0 0 1 2 2z" fill="#ffde55"/><path d="m59 22h-4v-12h6a1 1 0 0 0 1-1 7.008 7.008 0 0 0 -7-7h-41a5.006 5.006 0 0 0 -5 5v47h-6a1 1 0 0 0 -1 1 7.008 7.008 0 0 0 7 7h50a3 3 0 0 0 3-3v-34a3 3 0 0 0 -3-3zm.9-14h-4.9v-4a5.008 5.008 0 0 1 4.9 4zm-48.9-1a3 3 0 0 1 3-3h39v18h-18a3 3 0 0 0 -3 3v29h-21zm-5.536 51.53a4.9 4.9 0 0 1 -1.364-2.53h27.9v3a2.966 2.966 0 0 0 .184 1h-23.184a4.935 4.935 0 0 1 -3.536-1.47zm54.536.47a1 1 0 0 1 -1 1h-24a1 1 0 0 1 -1-1v-34a1 1 0 0 1 1-1h24a1 1 0 0 1 1 1z"/><path d="m53 26h-12a5.006 5.006 0 0 0 -5 5v4a5.006 5.006 0 0 0 5 5h12a5.006 5.006 0 0 0 5-5v-4a5.006 5.006 0 0 0 -5-5zm3 9a3 3 0 0 1 -3 3h-12a3 3 0 0 1 -3-3v-4a3 3 0 0 1 3-3h12a3 3 0 0 1 3 3z"/><path d="m40.5 42h-2a2.5 2.5 0 0 0 -2.5 2.5v2a2.5 2.5 0 0 0 2.5 2.5h2a2.5 2.5 0 0 0 2.5-2.5v-2a2.5 2.5 0 0 0 -2.5-2.5zm.5 4.5a.5.5 0 0 1 -.5.5h-2a.5.5 0 0 1 -.5-.5v-2a.5.5 0 0 1 .5-.5h2a.5.5 0 0 1 .5.5z"/><path d="m40.5 51h-2a2.5 2.5 0 0 0 -2.5 2.5v2a2.5 2.5 0 0 0 2.5 2.5h2a2.5 2.5 0 0 0 2.5-2.5v-2a2.5 2.5 0 0 0 -2.5-2.5zm.5 4.5a.5.5 0 0 1 -.5.5h-2a.5.5 0 0 1 -.5-.5v-2a.5.5 0 0 1 .5-.5h2a.5.5 0 0 1 .5.5z"/><path d="m48.5 42h-2a2.5 2.5 0 0 0 -2.5 2.5v2a2.5 2.5 0 0 0 2.5 2.5h2a2.5 2.5 0 0 0 2.5-2.5v-2a2.5 2.5 0 0 0 -2.5-2.5zm.5 4.5a.5.5 0 0 1 -.5.5h-2a.5.5 0 0 1 -.5-.5v-2a.5.5 0 0 1 .5-.5h2a.5.5 0 0 1 .5.5z"/><path d="m48.5 51h-2a2.5 2.5 0 0 0 -2.5 2.5v2a2.5 2.5 0 0 0 2.5 2.5h2a2.5 2.5 0 0 0 2.5-2.5v-2a2.5 2.5 0 0 0 -2.5-2.5zm.5 4.5a.5.5 0 0 1 -.5.5h-2a.5.5 0 0 1 -.5-.5v-2a.5.5 0 0 1 .5-.5h2a.5.5 0 0 1 .5.5z"/><path d="m57 49h-4a1 1 0 0 0 -1 1v7a1 1 0 0 0 1 1h4a1 1 0 0 0 1-1v-7a1 1 0 0 0 -1-1zm-1 7h-2v-5h2z"/><path d="m52 29h-2a2 2 0 0 0 -2 2v4a2 2 0 0 0 2 2h2a2 2 0 0 0 2-2v-4a2 2 0 0 0 -2-2zm-2 6v-4h2v4z"/><path d="m13 36h2v2h-2z"/><path d="m17 36h13v2h-13z"/><path d="m13 40h2v2h-2z"/><path d="m17 40h13v2h-13z"/><path d="m13 44h2v2h-2z"/><path d="m17 44h13v2h-13z"/><path d="m13 48h2v2h-2z"/><path d="m17 48h13v2h-13z"/><path d="m13 20h2v2h-2z"/><path d="m17 20h13v2h-13z"/><path d="m25 7h14v2h-14z"/><path d="m13 24h2v2h-2z"/><path d="m17 24h13v2h-13z"/><path d="m13 28h2v2h-2z"/><path d="m17 28h13v2h-13z"/><path d="m13 32h2v2h-2z"/><path d="m17 32h13v2h-13z"/><path d="m13 12h2v2h-2z"/><path d="m17 12h34v2h-34z"/><path d="m13 16h2v2h-2z"/><path d="m17 16h34v2h-34z"/><path d="m57 42h-4a1 1 0 0 0 -1 1v3a1 1 0 0 0 1 1h4a1 1 0 0 0 1-1v-3a1 1 0 0 0 -1-1zm-1 3h-2v-1h2z"/></g></svg>